<?xml version="1.0" encoding="UTF-8" standalone="no"?>
<!DOCTYPE svg PUBLIC "-//W3C//DTD SVG 1.1//EN" "http://www.w3.org/Graphics/SVG/1.1/DTD/svg11.dtd">
<svg xmlns="http://www.w3.org/2000/svg" version="1.1" viewBox="0.00 0.00 193.00 189.00">
<g stroke-width="2.00" fill="none" stroke-linecap="butt">

<path stroke="#a2a4ad" vector-effect="non-scaling-stroke" d="
  M 32.03 11.74
  Q 22.67 9.70 13.11 9.07
  C 11.61 8.97 9.48 9.26 9.58 11.27
  Q 10.05 20.25 11.86 30.15
  Q 14.08 42.26 18.08 47.97
  Q 25.60 58.70 41.71 55.79"
/>

<path stroke="#a2a4ad" vector-effect="non-scaling-stroke" d="
  M 56.28 83.68
  C 49.63 88.72 46.55 95.84 50.70 103.67
  C 52.89 107.80 55.78 109.89 59.74 111.85
  Q 60.41 112.18 60.15 112.87
  C 54.44 128.35 67.01 139.64 81.96 134.23
  Q 82.52 134.03 82.73 134.59
  Q 83.62 136.97 85.31 138.96"
/>

<path stroke="#a2a4ad" vector-effect="non-scaling-stroke" d="
  M 93.87 152.05
  C 83.25 161.46 83.89 172.49 93.87 182.07
  C 95.60 183.74 97.15 185.30 99.63 183.13
  Q 105.72 177.83 108.32 170.76"
/>

<path stroke="#a2a4ad" vector-effect="non-scaling-stroke" d="
  M 43.85 95.16
  C 38.38 87.67 29.14 82.22 20.09 86.83
  Q 14.43 89.71 10.33 95.21
  A 2.35 2.34 43.9 0 0 10.39 98.09
  C 15.23 104.05 21.60 108.85 29.46 107.69
  C 34.90 106.88 40.70 102.15 43.87 97.64
  A 2.13 2.12 -45.6 0 0 43.85 95.16"
/>
<path stroke="#a2a4ad" vector-effect="non-scaling-stroke" d="
  M 52.65 144.51
  L 55.50 141.65
  Q 57.03 140.10 55.58 138.48
  Q 55.15 138.01 54.52 137.80
  A 1.56 1.55 -58.0 0 0 52.94 138.17
  L 49.51 141.58
  Q 49.05 142.04 48.53 141.64
  Q 41.53 136.17 32.60 137.26
  C 22.70 138.47 16.94 144.70 14.29 153.79
  Q 10.71 166.07 9.71 178.95
  C 9.59 180.52 9.23 181.99 9.87 183.53
  A 1.82 1.80 -12.8 0 0 11.64 184.63
  Q 20.55 184.10 30.42 182.38
  C 36.39 181.34 47.07 178.91 51.00 174.11
  Q 62.32 160.28 52.56 145.47
  Q 52.21 144.95 52.65 144.51"
/>

<path stroke="#a4a6af" vector-effect="non-scaling-stroke" d="
  M 89.88 16.09
  C 82.76 26.27 87.63 36.25 96.51 43.00"
/>

<path stroke="#a4a6af" vector-effect="non-scaling-stroke" d="
  M 96.56 48.00
  C 89.31 48.79 85.37 52.74 82.20 59.01
  Q 81.93 59.56 81.37 59.31
  Q 78.44 57.98 75.58 57.83
  C 62.11 57.14 55.52 68.99 60.07 80.98
  Q 60.24 81.45 59.81 81.69
  L 56.28 83.68"
/>
<path stroke="#a4a6af" vector-effect="non-scaling-stroke" d="
  M 41.71 55.79
  L 48.64 52.10
  Q 49.17 51.82 49.58 52.24
  L 52.29 54.96
  Q 53.78 56.46 55.54 55.28
  Q 55.95 55.01 56.08 54.50
  Q 56.49 52.84 55.28 51.63
  L 52.56 48.91
  Q 52.17 48.51 52.49 48.05
  Q 59.13 38.56 56.08 28.67
  Q 53.73 21.06 48.96 17.76
  Q 42.68 13.42 32.03 11.74"
/>

<path stroke="#a7a9b2" vector-effect="non-scaling-stroke" d="
  M 180.18 153.24
  Q 176.05 139.20 162.18 137.22"
/>
<path stroke="#595d71" vector-effect="non-scaling-stroke" d="
  M 162.18 137.22
  Q 161.45 137.47 161.69 135.17
  A 0.15 0.15 0.0 0 0 161.50 135.00
  Q 161.33 135.04 161.17 135.06
  Q 160.58 135.10 160.62 134.52
  L 160.68 133.73
  Q 160.72 133.14 160.13 133.23
  Q 157.95 133.58 157.88 131.72
  Q 157.85 130.84 157.00 131.08
  Q 156.67 131.17 156.37 130.96
  Q 155.63 130.43 156.49 130.11
  Q 156.92 129.94 157.30 129.78
  Q 158.22 129.39 157.24 129.23
  Q 156.01 129.03 154.75 129.09
  Q 154.17 129.11 153.98 128.56
  Q 153.86 128.23 153.96 127.88
  A 0.69 0.68 14.5 0 0 153.46 127.04
  Q 152.92 126.91 153.00 126.25
  A 0.31 0.31 0.0 0 1 153.33 125.98
  Q 153.55 125.99 153.64 125.81
  Q 153.93 125.25 153.31 125.14
  Q 152.50 125.00 151.71 125.06
  Q 151.49 125.08 151.29 124.98
  Q 151.06 124.87 151.01 124.59
  Q 150.92 124.10 151.40 123.99
  Q 151.61 123.95 151.69 123.75
  Q 151.95 123.04 151.20 123.06
  Q 150.27 123.08 149.44 123.01
  Q 149.26 123.00 149.12 122.87
  Q 148.88 122.65 149.06 122.28
  Q 149.21 121.97 149.56 121.94
  Q 149.70 121.92 149.73 121.72
  Q 149.80 121.13 149.21 121.14
  Q 147.79 121.16 147.90 119.80
  Q 147.96 119.07 147.23 119.07
  L 146.72 119.07
  Q 145.63 119.07 146.35 118.26
  Q 146.69 117.89 147.27 117.74
  Q 148.44 117.45 147.25 117.22
  Q 146.04 116.99 144.62 117.09
  Q 144.26 117.11 144.09 116.80
  Q 144.00 116.64 144.16 116.39
  Q 144.34 116.12 144.65 116.03
  Q 145.01 115.92 145.32 115.80
  Q 146.15 115.49 145.30 115.25
  Q 144.33 114.97 143.46 114.99
  Q 143.16 115.00 143.01 114.74
  Q 142.91 114.56 142.97 114.40
  Q 143.19 113.85 143.78 113.85
  Q 144.47 113.84 145.10 113.71
  Q 146.25 113.45 145.08 113.30
  Q 143.53 113.10 141.66 113.07
  Q 141.25 113.06 141.00 112.72
  Q 140.83 112.49 141.00 112.25
  A 0.91 0.90 -79.5 0 1 141.55 111.87
  Q 141.81 111.80 141.71 111.50
  Q 141.63 111.28 141.41 111.22
  L 140.51 110.96
  Q 139.51 110.68 140.40 110.15
  Q 140.85 109.88 141.34 109.87
  Q 142.01 109.87 141.69 109.28
  Q 141.49 108.91 140.88 108.92
  Q 140.76 108.92 140.60 109.03
  Q 140.40 109.16 140.32 108.95
  Q 140.25 108.78 140.25 108.45"
/>
<path stroke="#a7a9b2" vector-effect="non-scaling-stroke" d="
  M 140.25 108.45
  C 150.33 100.07 146.72 86.63 135.25 81.54
  Q 134.68 81.29 134.90 80.71
  C 137.99 72.48 136.01 62.76 127.39 59.11
  Q 120.57 56.22 113.21 59.21
  Q 112.74 59.40 112.48 58.96
  C 108.52 52.28 104.88 48.02 96.56 48.00"
/>
<path stroke="#a7a9b2" vector-effect="non-scaling-stroke" d="
  M 96.51 43.00
  Q 97.75 43.91 98.70 43.20
  Q 104.19 39.17 107.60 32.20
  C 111.84 23.52 105.45 14.41 98.45 9.25
  A 1.55 1.54 44.8 0 0 96.62 9.25
  Q 92.85 12.03 89.88 16.09"
/>
<path stroke="#a7a9b2" vector-effect="non-scaling-stroke" d="
  M 146.06 52.17
  Q 158.26 60.46 171.13 53.21
  C 175.99 50.47 178.79 44.79 180.35 39.60
  Q 184.01 27.41 185.14 11.54
  A 2.34 2.33 -89.5 0 0 182.69 9.04
  Q 170.01 9.70 156.98 12.99
  Q 149.84 14.80 145.84 17.81
  C 136.42 24.90 135.15 38.58 142.14 48.00
  Q 142.54 48.53 142.07 49.00
  L 139.43 51.65
  Q 138.23 52.85 138.63 54.51
  Q 138.76 55.03 139.17 55.30
  Q 140.95 56.44 142.45 54.94
  L 145.14 52.25
  Q 145.57 51.83 146.06 52.17"
/>
<path stroke="#a7a9b2" vector-effect="non-scaling-stroke" d="
  M 151.44 98.49
  C 157.25 105.80 166.02 111.03 174.97 106.38
  Q 180.94 103.28 184.91 97.71
  A 1.59 1.59 0.0 0 0 184.89 95.84
  C 179.03 87.95 169.75 82.45 160.26 87.72
  Q 155.20 90.54 151.25 95.61
  C 150.49 96.59 150.73 97.60 151.44 98.49"
/>
<path stroke="#a4a6af" vector-effect="non-scaling-stroke" d="
  M 42.74 19.52
  Q 31.21 15.12 18.36 14.23
  Q 17.76 14.19 18.18 14.61
  L 38.12 34.52
  Q 38.58 34.98 38.58 34.33
  L 38.56 28.67
  Q 38.55 26.92 39.93 25.84
  Q 40.69 25.24 41.47 25.80
  Q 43.00 26.91 43.00 28.80
  L 43.00 38.72
  Q 43.00 39.33 43.43 39.76
  L 48.57 44.99
  Q 49.01 45.44 49.36 44.92
  C 55.31 36.12 53.01 23.44 42.74 19.52"
/>
<path stroke="#a4a6af" vector-effect="non-scaling-stroke" d="
  M 14.57 17.76
  Q 15.66 28.63 18.28 37.80
  C 20.38 45.13 23.65 49.73 31.71 51.69
  Q 38.91 53.43 45.39 48.73
  Q 45.82 48.42 45.45 48.04
  L 40.32 42.94
  A 1.50 1.50 0.0 0 0 39.26 42.50
  L 28.77 42.50
  Q 26.85 42.50 26.10 40.73
  Q 25.68 39.71 26.90 38.55
  A 2.02 2.01 -66.4 0 1 28.27 38.01
  L 34.68 38.00
  Q 35.49 38.00 34.92 37.42
  L 14.98 17.56
  Q 14.50 17.08 14.57 17.76"
/>
<path stroke="#a4a6af" vector-effect="non-scaling-stroke" d="
  M 91.72 21.62
  C 88.89 27.84 92.64 33.89 97.38 37.96
  A 0.61 0.61 0.0 0 0 98.19 37.95
  C 106.59 30.34 106.68 21.86 97.95 14.39
  A 0.56 0.56 0.0 0 0 97.21 14.40
  Q 93.49 17.73 91.72 21.62"
/>
<path stroke="#a7a9b2" vector-effect="non-scaling-stroke" d="
  M 154.57 25.71
  Q 156.12 26.51 156.12 28.26
  L 156.12 34.24
  Q 156.13 35.03 156.68 34.47
  L 176.48 14.66
  Q 177.08 14.05 176.23 14.14
  Q 168.16 14.96 159.49 17.01
  C 151.15 18.99 144.58 21.85 142.52 30.65
  Q 140.73 38.28 145.42 45.14
  A 0.35 0.35 0.0 0 0 145.95 45.19
  L 151.17 39.90
  A 2.01 1.98 67.8 0 0 151.75 38.49
  L 151.74 28.10
  Q 151.74 26.06 153.72 25.59
  Q 154.14 25.48 154.57 25.71"
/>
<path stroke="#a7a9b2" vector-effect="non-scaling-stroke" d="
  M 159.97 37.24
  Q 159.21 38.00 160.29 37.99
  Q 163.57 37.95 166.47 38.06
  Q 168.03 38.11 168.64 39.73
  Q 168.76 40.02 168.69 40.33
  Q 168.20 42.50 165.97 42.50
  L 155.39 42.50
  Q 154.84 42.50 154.46 42.88
  L 149.30 48.02
  Q 148.86 48.47 149.37 48.83
  Q 156.14 53.58 163.55 51.56
  Q 171.17 49.49 173.95 43.88
  C 177.58 36.56 179.20 26.54 180.17 17.90
  Q 180.27 17.05 179.66 17.65
  L 159.97 37.24"
/>
<path stroke="#a4a6af" vector-effect="non-scaling-stroke" d="
  M 140.25 108.45
  L 135.36 111.50
  Q 134.80 111.85 135.03 112.46
  C 138.91 122.66 134.60 133.71 122.98 135.20
  Q 118.17 135.82 113.57 133.96
  Q 113.02 133.73 112.76 134.27
  C 110.06 139.83 106.40 143.66 100.24 145.03
  Q 91.40 147.01 85.31 138.96"
/>
<path stroke="#a4a6af" vector-effect="non-scaling-stroke" d="
  M 86.42 61.78
  C 92.50 65.83 94.90 71.48 97.13 78.28
  Q 97.53 79.51 97.83 78.25
  Q 100.46 67.15 108.18 61.88
  Q 108.78 61.47 108.51 60.80
  Q 106.34 55.51 101.50 53.28
  C 95.04 50.30 88.57 54.79 86.17 60.96
  Q 85.97 61.47 86.42 61.78"
/>
<path stroke="#a4a6af" vector-effect="non-scaling-stroke" d="
  M 116.16 81.04
  A 1.49 1.44 -18.3 0 1 115.75 81.82
  L 109.34 88.25
  Q 108.91 88.69 109.17 89.24
  L 110.68 92.40
  A 0.71 0.71 0.0 0 0 111.51 92.78
  Q 116.64 91.37 120.92 89.57
  C 128.49 86.39 134.48 76.26 130.83 68.41
  Q 127.06 60.26 117.32 62.63
  C 107.16 65.11 103.27 73.00 101.20 82.52
  Q 101.05 83.20 101.68 83.49
  L 105.17 85.13
  Q 105.79 85.41 106.27 84.93
  L 112.07 79.10
  Q 113.57 77.59 115.52 78.43
  Q 116.57 78.89 116.16 81.04"
/>
<path stroke="#a4a6af" vector-effect="non-scaling-stroke" d="
  M 79.74 78.54
  Q 81.59 77.37 83.15 78.91
  L 89.02 84.72
  Q 89.43 85.12 89.95 84.88
  L 93.29 83.34
  Q 93.76 83.12 93.66 82.62
  C 91.62 72.97 87.75 65.04 77.21 62.71
  C 68.53 60.79 61.39 66.84 63.19 75.85
  C 65.35 86.59 73.52 90.98 83.68 93.08
  Q 84.23 93.19 84.38 92.65
  Q 84.91 90.73 86.04 89.06
  Q 86.39 88.53 85.95 88.08
  L 79.48 81.57
  A 1.40 1.36 18.6 0 1 79.09 80.81
  Q 78.85 79.10 79.74 78.54"
/>
<path stroke="#a4a6af" vector-effect="non-scaling-stroke" d="
  M 118.36 97.73
  Q 127.55 100.49 132.34 107.41
  Q 132.69 107.92 133.25 107.68
  C 144.78 102.96 144.26 90.07 133.25 85.31
  Q 132.60 85.02 132.22 85.62
  Q 127.20 93.51 116.01 96.13
  Q 114.82 96.41 115.95 96.87
  Q 117.15 97.36 118.36 97.73"
/>
<path stroke="#a4a6af" vector-effect="non-scaling-stroke" d="
  M 78.44 97.42
  Q 81.00 96.71 78.42 96.06
  C 72.93 94.68 65.70 91.10 62.73 85.98
  Q 62.49 85.56 62.04 85.72
  C 50.16 90.04 50.70 103.39 61.93 108.02
  Q 62.41 108.22 62.71 107.79
  Q 67.90 100.29 78.44 97.42"
/>
<path stroke="#a4a6af" vector-effect="non-scaling-stroke" d="
  M 106.95 96.73
  A 9.45 9.45 0.0 0 0 97.50 87.28
  A 9.45 9.45 0.0 0 0 88.05 96.73
  A 9.45 9.45 0.0 0 0 97.50 106.18
  A 9.45 9.45 0.0 0 0 106.95 96.73"
/>
<path stroke="#a4a6af" vector-effect="non-scaling-stroke" d="
  M 80.10 114.49
  L 79.84 114.28
  Q 78.11 112.88 79.68 111.30
  L 85.77 105.19
  Q 86.27 104.69 85.89 104.09
  Q 84.98 102.65 84.46 100.90
  Q 84.26 100.21 83.55 100.35
  C 74.36 102.29 66.39 106.34 63.68 116.00
  C 60.84 126.12 69.11 133.70 78.94 130.38
  C 88.49 127.15 91.80 119.78 93.83 110.71
  Q 93.97 110.12 93.43 109.86
  L 89.81 108.08
  Q 89.29 107.82 88.88 108.23
  L 82.72 114.36
  Q 81.47 115.60 80.10 114.49"
/>
<path stroke="#a4a6af" vector-effect="non-scaling-stroke" d="
  M 114.90 114.23
  L 114.65 114.48
  Q 113.40 115.72 112.15 114.48
  L 106.20 108.62
  A 1.06 1.05 -34.9 0 0 105.01 108.41
  L 101.88 109.88
  Q 101.26 110.17 101.41 110.84
  C 103.79 121.23 108.35 129.64 119.30 130.99
  C 125.18 131.72 130.49 128.47 131.76 122.54
  C 132.96 116.93 130.17 110.19 125.87 106.65
  Q 120.52 102.24 111.57 100.38
  Q 110.87 100.24 110.66 100.91
  Q 110.06 102.82 109.03 104.23
  Q 108.66 104.74 109.10 105.19
  L 114.92 111.15
  Q 116.44 112.70 114.90 114.23"
/>
<path stroke="#a4a6af" vector-effect="non-scaling-stroke" d="
  M 97.28 115.10
  C 95.33 121.71 92.70 127.66 86.72 131.43
  Q 86.25 131.72 86.48 132.23
  C 91.65 143.77 103.39 143.66 108.81 132.48
  A 0.85 0.84 -59.9 0 0 108.53 131.41
  C 102.51 127.23 99.99 121.85 97.93 115.09
  Q 97.60 114.02 97.28 115.10"
/>
<path stroke="#a2a4ad" vector-effect="non-scaling-stroke" d="
  M 21.25 101.70
  C 28.02 105.71 34.24 102.14 38.88 96.84
  Q 39.19 96.49 38.88 96.13
  C 34.82 91.33 28.55 87.65 22.36 90.72
  Q 18.17 92.80 15.18 96.19
  A 0.47 0.47 0.0 0 0 15.19 96.82
  Q 17.74 99.62 21.25 101.70"
/>
<path stroke="#a7a9b2" vector-effect="non-scaling-stroke" d="
  M 170.46 90.11
  C 165.11 88.67 159.37 92.60 156.12 96.53
  A 0.66 0.66 0.0 0 0 156.14 97.39
  C 158.79 100.28 163.53 104.03 167.77 103.76
  C 172.48 103.46 176.78 100.68 179.73 97.11
  Q 180.06 96.72 179.73 96.33
  Q 175.62 91.50 170.46 90.11"
/>
<path stroke="#a4a6af" vector-effect="non-scaling-stroke" d="
  M 162.18 137.22
  Q 153.27 136.17 146.16 141.62
  Q 145.66 142.00 145.21 141.56
  L 141.80 138.19
  A 1.62 1.61 57.2 0 0 140.11 137.82
  Q 139.41 138.08 139.01 138.60
  Q 137.77 140.19 139.19 141.61
  L 142.16 144.60
  A 0.72 0.71 41.1 0 1 142.23 145.53
  C 135.85 154.09 136.16 165.54 143.19 173.54
  C 146.64 177.45 152.10 179.50 157.00 180.76
  Q 165.99 183.08 174.76 183.82
  Q 178.27 184.12 182.42 184.63
  C 183.99 184.82 185.15 183.97 185.07 182.26
  Q 184.32 167.37 180.18 153.24"
/>
<path stroke="#a4a6af" vector-effect="non-scaling-stroke" d="
  M 108.32 170.76
  C 109.91 162.31 104.88 154.95 98.39 150.22
  Q 97.98 149.92 97.47 149.98
  Q 95.41 150.19 93.87 152.05"
/>
<path stroke="#a2a4ad" vector-effect="non-scaling-stroke" d="
  M 26.45 152.13
  A 1.85 1.84 -74.2 0 1 28.02 151.25
  L 39.34 151.25
  Q 39.87 151.25 40.25 150.87
  L 45.59 145.58
  A 0.44 0.44 0.0 0 0 45.52 144.90
  Q 35.68 138.34 25.74 144.37
  Q 21.60 146.89 19.90 151.24
  Q 16.04 161.18 14.55 175.60
  Q 14.46 176.47 15.08 175.85
  L 34.81 156.13
  Q 35.43 155.50 34.55 155.50
  L 28.09 155.50
  Q 26.41 155.50 26.07 153.85
  Q 25.89 153.03 26.45 152.13"
/>
<path stroke="#a2a4ad" vector-effect="non-scaling-stroke" d="
  M 41.09 168.17
  Q 40.75 168.31 40.40 168.19
  Q 38.74 167.63 38.64 165.97
  Q 38.46 163.08 38.60 159.55
  Q 38.63 158.73 38.05 159.31
  L 18.26 179.06
  Q 17.51 179.81 18.56 179.66
  Q 26.20 178.59 34.53 176.78
  C 42.60 175.02 49.22 172.49 51.79 164.14
  Q 54.28 156.08 49.39 148.75
  Q 49.08 148.28 48.67 148.67
  L 43.44 153.72
  A 1.46 1.45 -22.4 0 0 43.00 154.76
  L 43.00 165.50
  Q 43.00 167.42 41.09 168.17"
/>
<path stroke="#a4a6af" vector-effect="non-scaling-stroke" d="
  M 166.64 155.50
  L 159.97 155.51
  Q 159.22 155.51 159.75 156.04
  L 179.66 175.84
  Q 180.14 176.33 180.08 175.65
  Q 178.88 163.29 175.37 152.71
  Q 174.07 148.78 171.96 146.79
  Q 162.45 137.81 150.09 144.15
  Q 148.53 144.95 149.77 146.20
  L 154.49 150.89
  Q 154.85 151.25 155.35 151.25
  L 166.69 151.25
  A 1.72 1.70 -19.5 0 1 168.01 151.87
  Q 168.85 152.88 168.58 153.97
  Q 168.21 155.50 166.64 155.50"
/>
<path stroke="#a4a6af" vector-effect="non-scaling-stroke" d="
  M 153.38 168.12
  Q 151.73 167.28 151.74 165.60
  Q 151.75 160.26 151.75 154.86
  A 1.33 1.33 0.0 0 0 151.36 153.92
  L 146.07 148.64
  A 0.41 0.41 0.0 0 0 145.45 148.68
  C 138.40 158.38 142.56 171.39 153.94 175.02
  Q 163.76 178.14 176.18 179.62
  Q 177.13 179.73 176.45 179.06
  L 156.82 159.45
  Q 156.14 158.76 156.14 159.73
  L 156.14 165.30
  Q 156.14 167.38 154.22 168.15
  Q 153.78 168.33 153.38 168.12"
/>
<path stroke="#a4a6af" vector-effect="non-scaling-stroke" d="
  M 91.33 162.82
  C 88.70 168.83 92.35 175.03 97.04 178.89
  A 0.56 0.54 -45.8 0 0 97.76 178.87
  C 101.09 175.85 104.54 171.18 104.29 166.75
  C 104.04 162.38 100.99 158.17 97.62 155.36
  Q 97.30 155.09 96.98 155.36
  Q 93.13 158.70 91.33 162.82"
/>
</g>
<path fill="#52556a" d="
  M 0.00 0.00
  L 28.89 0.00
  Q 31.63 0.91 31.30 1.66
  Q 30.98 2.40 31.63 3.09
  Q 31.93 3.41 31.93 3.85
  L 31.91 8.43
  Q 31.90 8.87 32.26 9.12
  Q 32.60 9.36 33.04 9.29
  Q 33.64 9.20 33.53 9.79
  Q 33.45 10.16 33.10 10.38
  A 0.05 0.05 0.0 0 1 33.02 10.34
  Q 32.96 10.06 32.68 9.99
  A 0.37 0.36 25.8 0 0 32.32 10.11
  Q 31.83 10.75 32.03 11.74
  Q 22.67 9.70 13.11 9.07
  C 11.61 8.97 9.48 9.26 9.58 11.27
  Q 10.05 20.25 11.86 30.15
  Q 14.08 42.26 18.08 47.97
  Q 25.60 58.70 41.71 55.79
  Q 41.79 57.34 43.49 57.06
  Q 43.99 56.98 44.49 57.28
  A 0.28 0.28 0.0 0 1 44.33 57.79
  Q 43.73 57.76 43.25 58.07
  Q 42.56 58.52 43.31 58.87
  Q 43.53 58.97 43.70 59.13
  A 0.82 0.81 28.1 0 1 43.94 59.90
  Q 43.72 60.90 44.74 61.10
  Q 46.70 61.46 44.76 61.88
  Q 44.44 61.95 44.18 62.15
  A 0.36 0.36 0.0 0 0 44.43 62.80
  Q 45.06 62.75 45.47 63.17
  Q 45.93 63.64 45.36 63.96
  Q 45.04 64.15 45.14 64.49
  Q 45.29 65.01 45.83 65.08
  Q 46.70 65.18 47.41 65.41
  Q 47.90 65.57 47.39 65.61
  Q 46.69 65.68 46.24 66.11
  Q 45.54 66.79 46.49 67.02
  Q 46.98 67.14 47.48 67.11
  Q 47.60 67.10 47.70 67.17
  Q 47.82 67.27 47.82 67.45
  Q 47.81 67.82 47.44 67.82
  Q 46.84 67.81 46.27 68.05
  Q 45.92 68.19 45.97 68.57
  Q 46.00 68.76 46.16 68.89
  Q 46.46 69.12 46.83 69.10
  Q 48.03 69.04 49.22 69.32
  Q 50.28 69.57 49.20 69.73
  Q 48.41 69.84 47.53 69.96
  Q 46.52 70.09 47.27 70.77
  L 47.57 71.04
  Q 47.98 71.41 47.92 71.96
  Q 47.79 73.20 49.14 73.12
  Q 49.93 73.08 49.52 73.75
  Q 49.38 73.98 49.15 74.12
  Q 48.56 74.50 49.15 74.87
  L 49.50 75.09
  Q 50.20 75.53 49.46 75.89
  Q 49.21 76.01 49.07 76.26
  Q 48.73 76.84 49.39 76.99
  Q 50.53 77.23 51.59 77.11
  Q 51.79 77.08 51.79 77.29
  L 51.79 77.54
  Q 51.80 77.87 51.47 77.86
  Q 50.74 77.85 50.13 78.13
  A 0.47 0.47 0.0 0 0 50.30 79.03
  L 51.63 79.10
  A 0.37 0.37 0.0 0 1 51.70 79.83
  Q 51.42 79.89 51.23 80.11
  Q 50.67 80.80 51.54 80.97
  L 53.31 81.32
  Q 53.85 81.43 53.32 81.60
  L 52.32 81.94
  Q 51.76 82.12 52.03 82.64
  Q 52.38 83.31 53.14 83.06
  A 0.64 0.64 0.0 0 1 53.93 83.45
  Q 54.15 84.06 54.82 83.92
  Q 55.14 83.86 55.10 83.53
  Q 55.07 83.27 55.33 83.34
  Q 55.48 83.37 55.64 83.36
  Q 56.50 83.30 56.28 83.68
  C 49.63 88.72 46.55 95.84 50.70 103.67
  C 52.89 107.80 55.78 109.89 59.74 111.85
  Q 60.41 112.18 60.15 112.87
  C 54.44 128.35 67.01 139.64 81.96 134.23
  Q 82.52 134.03 82.73 134.59
  Q 83.62 136.97 85.31 138.96
  Q 85.33 139.45 84.69 139.19
  Q 83.98 138.90 84.05 139.67
  Q 84.07 139.81 84.07 139.97
  Q 84.05 140.94 85.02 140.86
  Q 85.15 140.85 85.27 140.83
  Q 85.93 140.73 85.79 141.38
  Q 85.67 141.89 85.35 142.22
  Q 84.94 142.64 85.51 142.77
  Q 86.02 142.89 86.10 143.40
  Q 86.18 143.98 86.71 143.72
  Q 87.00 143.57 87.17 143.28
  Q 87.32 143.02 87.58 143.17
  L 87.82 143.30
  Q 87.95 143.38 87.88 143.52
  Q 87.68 143.92 87.31 144.14
  Q 86.64 144.53 87.38 144.76
  Q 88.48 145.10 89.46 145.10
  Q 89.67 145.10 89.78 145.28
  Q 89.90 145.46 89.81 145.65
  Q 89.63 146.01 89.25 145.91
  Q 88.63 145.73 88.26 146.14
  Q 87.66 146.80 88.55 146.80
  Q 90.11 146.80 89.93 148.25
  A 0.70 0.70 0.0 0 0 90.50 149.03
  L 92.51 149.38
  Q 92.99 149.46 92.54 149.64
  Q 92.33 149.73 92.11 149.72
  Q 91.51 149.70 91.15 150.15
  Q 90.65 150.79 91.46 150.80
  Q 93.27 150.82 93.87 152.05
  C 83.25 161.46 83.89 172.49 93.87 182.07
  C 95.60 183.74 97.15 185.30 99.63 183.13
  Q 105.72 177.83 108.32 170.76
  L 109.17 171.23
  Q 109.78 171.57 109.39 172.15
  Q 108.90 172.89 109.80 173.09
  A 1.28 1.28 0.0 0 1 110.79 174.15
  Q 110.94 175.14 111.94 175.25
  Q 112.47 175.31 112.56 175.84
  Q 113.14 179.16 109.96 180.58
  Q 109.35 180.85 109.19 181.56
  Q 109.11 181.87 108.92 182.13
  Q 108.56 182.62 107.98 182.64
  Q 107.46 182.65 107.29 183.15
  Q 107.05 183.86 106.42 184.25
  Q 105.98 184.52 105.67 184.94
  L 102.62 189.00
  L 0.00 189.00
  L 0.00 0.00
  Z
  M 43.85 95.16
  C 38.38 87.67 29.14 82.22 20.09 86.83
  Q 14.43 89.71 10.33 95.21
  A 2.35 2.34 43.9 0 0 10.39 98.09
  C 15.23 104.05 21.60 108.85 29.46 107.69
  C 34.90 106.88 40.70 102.15 43.87 97.64
  A 2.13 2.12 -45.6 0 0 43.85 95.16
  Z
  M 52.65 144.51
  L 55.50 141.65
  Q 57.03 140.10 55.58 138.48
  Q 55.15 138.01 54.52 137.80
  A 1.56 1.55 -58.0 0 0 52.94 138.17
  L 49.51 141.58
  Q 49.05 142.04 48.53 141.64
  Q 41.53 136.17 32.60 137.26
  C 22.70 138.47 16.94 144.70 14.29 153.79
  Q 10.71 166.07 9.71 178.95
  C 9.59 180.52 9.23 181.99 9.87 183.53
  A 1.82 1.80 -12.8 0 0 11.64 184.63
  Q 20.55 184.10 30.42 182.38
  C 36.39 181.34 47.07 178.91 51.00 174.11
  Q 62.32 160.28 52.56 145.47
  Q 52.21 144.95 52.65 144.51
  Z"
/>
<path fill="#565a6e" d="
  M 28.89 0.00
  L 85.37 0.00
  Q 85.22 0.81 85.99 1.16
  Q 86.37 1.33 86.19 1.71
  Q 86.08 1.96 85.79 1.95
  A 0.41 0.40 -2.9 0 0 85.37 2.41
  Q 85.43 2.83 85.80 3.07
  Q 86.51 3.54 85.73 3.83
  Q 85.57 3.89 85.47 4.02
  Q 84.77 4.87 85.87 4.89
  Q 86.85 4.90 87.64 5.29
  Q 88.13 5.54 87.63 5.77
  Q 87.30 5.93 86.93 5.85
  Q 86.12 5.68 86.12 6.51
  L 86.12 8.25
  Q 86.12 9.05 86.91 8.89
  Q 87.30 8.81 87.63 9.09
  Q 88.23 9.63 87.46 9.85
  L 86.35 10.16
  Q 86.22 10.20 86.16 10.31
  Q 86.09 10.44 86.13 10.57
  Q 86.19 10.87 86.50 10.85
  Q 87.02 10.82 87.51 11.04
  A 0.49 0.49 0.0 0 1 87.66 11.84
  L 87.38 12.11
  Q 86.84 12.66 87.55 12.93
  Q 88.45 13.27 89.45 13.16
  Q 89.77 13.12 89.85 13.43
  Q 89.88 13.56 89.84 13.69
  Q 89.66 14.26 89.12 14.02
  Q 88.24 13.65 87.31 14.20
  A 0.33 0.32 -46.7 0 0 87.32 14.76
  Q 88.25 15.23 88.34 16.19
  Q 88.39 16.72 88.60 16.23
  L 89.07 15.15
  Q 89.35 14.48 89.76 15.09
  Q 89.98 15.43 89.88 16.09
  C 82.76 26.27 87.63 36.25 96.51 43.00
  L 96.56 48.00
  C 89.31 48.79 85.37 52.74 82.20 59.01
  Q 81.93 59.56 81.37 59.31
  Q 78.44 57.98 75.58 57.83
  C 62.11 57.14 55.52 68.99 60.07 80.98
  Q 60.24 81.45 59.81 81.69
  L 56.28 83.68
  Q 56.50 83.30 55.64 83.36
  Q 55.48 83.37 55.33 83.34
  Q 55.07 83.27 55.10 83.53
  Q 55.14 83.86 54.82 83.92
  Q 54.15 84.06 53.93 83.45
  A 0.64 0.64 0.0 0 0 53.14 83.06
  Q 52.38 83.31 52.03 82.64
  Q 51.76 82.12 52.32 81.94
  L 53.32 81.60
  Q 53.85 81.43 53.31 81.32
  L 51.54 80.97
  Q 50.67 80.80 51.23 80.11
  Q 51.42 79.89 51.70 79.83
  A 0.37 0.37 0.0 0 0 51.63 79.10
  L 50.30 79.03
  A 0.47 0.47 0.0 0 1 50.13 78.13
  Q 50.74 77.85 51.47 77.86
  Q 51.80 77.87 51.79 77.54
  L 51.79 77.29
  Q 51.79 77.08 51.59 77.11
  Q 50.53 77.23 49.39 76.99
  Q 48.73 76.84 49.07 76.26
  Q 49.21 76.01 49.46 75.89
  Q 50.20 75.53 49.50 75.09
  L 49.15 74.87
  Q 48.56 74.50 49.15 74.12
  Q 49.38 73.98 49.52 73.75
  Q 49.93 73.08 49.14 73.12
  Q 47.79 73.20 47.92 71.96
  Q 47.98 71.41 47.57 71.04
  L 47.27 70.77
  Q 46.52 70.09 47.53 69.96
  Q 48.41 69.84 49.20 69.73
  Q 50.28 69.57 49.22 69.32
  Q 48.03 69.04 46.83 69.10
  Q 46.46 69.12 46.16 68.89
  Q 46.00 68.76 45.97 68.57
  Q 45.92 68.19 46.27 68.05
  Q 46.84 67.81 47.44 67.82
  Q 47.81 67.82 47.82 67.45
  Q 47.82 67.27 47.70 67.17
  Q 47.60 67.10 47.48 67.11
  Q 46.98 67.14 46.49 67.02
  Q 45.54 66.79 46.24 66.11
  Q 46.69 65.68 47.39 65.61
  Q 47.90 65.57 47.41 65.41
  Q 46.70 65.18 45.83 65.08
  Q 45.29 65.01 45.14 64.49
  Q 45.04 64.15 45.36 63.96
  Q 45.93 63.64 45.47 63.17
  Q 45.06 62.75 44.43 62.80
  A 0.36 0.36 0.0 0 1 44.18 62.15
  Q 44.44 61.95 44.76 61.88
  Q 46.70 61.46 44.74 61.10
  Q 43.72 60.90 43.94 59.90
  A 0.82 0.81 28.1 0 0 43.70 59.13
  Q 43.53 58.97 43.31 58.87
  Q 42.56 58.52 43.25 58.07
  Q 43.73 57.76 44.33 57.79
  A 0.28 0.28 0.0 0 0 44.49 57.28
  Q 43.99 56.98 43.49 57.06
  Q 41.79 57.34 41.71 55.79
  L 48.64 52.10
  Q 49.17 51.82 49.58 52.24
  L 52.29 54.96
  Q 53.78 56.46 55.54 55.28
  Q 55.95 55.01 56.08 54.50
  Q 56.49 52.84 55.28 51.63
  L 52.56 48.91
  Q 52.17 48.51 52.49 48.05
  Q 59.13 38.56 56.08 28.67
  Q 53.73 21.06 48.96 17.76
  Q 42.68 13.42 32.03 11.74
  Q 31.83 10.75 32.32 10.11
  A 0.37 0.36 25.8 0 1 32.68 9.99
  Q 32.96 10.06 33.02 10.34
  A 0.05 0.05 0.0 0 0 33.10 10.38
  Q 33.45 10.16 33.53 9.79
  Q 33.64 9.20 33.04 9.29
  Q 32.60 9.36 32.26 9.12
  Q 31.90 8.87 31.91 8.43
  L 31.93 3.85
  Q 31.93 3.41 31.63 3.09
  Q 30.98 2.40 31.30 1.66
  Q 31.63 0.91 28.89 0.00
  Z"
/>
<path fill="#5c6073" d="
  M 85.37 0.00
  L 193.00 0.00
  L 193.00 161.02
  Q 191.25 161.37 189.46 160.90
  Q 188.58 160.68 189.26 160.08
  L 189.56 159.82
  Q 190.31 159.16 189.32 159.04
  Q 188.51 158.95 187.71 159.07
  Q 187.13 159.15 187.02 158.58
  Q 186.96 158.25 187.19 157.96
  Q 187.46 157.61 187.89 157.71
  Q 188.62 157.89 189.32 157.64
  Q 190.12 157.36 189.28 157.31
  L 184.71 157.04
  Q 184.42 157.02 184.18 156.85
  Q 183.76 156.53 183.91 155.97
  A 0.65 0.63 33.7 0 0 183.78 155.37
  Q 183.43 154.95 183.03 155.07
  Q 182.38 155.26 182.05 154.67
  Q 181.84 154.29 182.11 153.97
  Q 182.49 153.51 181.98 153.21
  Q 180.13 152.10 180.18 153.24
  Q 176.05 139.20 162.18 137.22
  Q 161.45 137.47 161.69 135.17
  A 0.15 0.15 0.0 0 0 161.50 135.00
  Q 161.33 135.04 161.17 135.06
  Q 160.58 135.10 160.62 134.52
  L 160.68 133.73
  Q 160.72 133.14 160.13 133.23
  Q 157.95 133.58 157.88 131.72
  Q 157.85 130.84 157.00 131.08
  Q 156.67 131.17 156.37 130.96
  Q 155.63 130.43 156.49 130.11
  Q 156.92 129.94 157.30 129.78
  Q 158.22 129.39 157.24 129.23
  Q 156.01 129.03 154.75 129.09
  Q 154.17 129.11 153.98 128.56
  Q 153.86 128.23 153.96 127.88
  A 0.69 0.68 14.5 0 0 153.46 127.04
  Q 152.92 126.91 153.00 126.25
  A 0.31 0.31 0.0 0 1 153.33 125.98
  Q 153.55 125.99 153.64 125.81
  Q 153.93 125.25 153.31 125.14
  Q 152.50 125.00 151.71 125.06
  Q 151.49 125.08 151.29 124.98
  Q 151.06 124.87 151.01 124.59
  Q 150.92 124.10 151.40 123.99
  Q 151.61 123.95 151.69 123.75
  Q 151.95 123.04 151.20 123.06
  Q 150.27 123.08 149.44 123.01
  Q 149.26 123.00 149.12 122.87
  Q 148.88 122.65 149.06 122.28
  Q 149.21 121.97 149.56 121.94
  Q 149.70 121.92 149.73 121.72
  Q 149.80 121.13 149.21 121.14
  Q 147.79 121.16 147.90 119.80
  Q 147.96 119.07 147.23 119.07
  L 146.72 119.07
  Q 145.63 119.07 146.35 118.26
  Q 146.69 117.89 147.27 117.74
  Q 148.44 117.45 147.25 117.22
  Q 146.04 116.99 144.62 117.09
  Q 144.26 117.11 144.09 116.80
  Q 144.00 116.64 144.16 116.39
  Q 144.34 116.12 144.65 116.03
  Q 145.01 115.92 145.32 115.80
  Q 146.15 115.49 145.30 115.25
  Q 144.33 114.97 143.46 114.99
  Q 143.16 115.00 143.01 114.74
  Q 142.91 114.56 142.97 114.40
  Q 143.19 113.85 143.78 113.85
  Q 144.47 113.84 145.10 113.71
  Q 146.25 113.45 145.08 113.30
  Q 143.53 113.10 141.66 113.07
  Q 141.25 113.06 141.00 112.72
  Q 140.83 112.49 141.00 112.25
  A 0.91 0.90 -79.5 0 1 141.55 111.87
  Q 141.81 111.80 141.71 111.50
  Q 141.63 111.28 141.41 111.22
  L 140.51 110.96
  Q 139.51 110.68 140.40 110.15
  Q 140.85 109.88 141.34 109.87
  Q 142.01 109.87 141.69 109.28
  Q 141.49 108.91 140.88 108.92
  Q 140.76 108.92 140.60 109.03
  Q 140.40 109.16 140.32 108.95
  Q 140.25 108.78 140.25 108.45
  C 150.33 100.07 146.72 86.63 135.25 81.54
  Q 134.68 81.29 134.90 80.71
  C 137.99 72.48 136.01 62.76 127.39 59.11
  Q 120.57 56.22 113.21 59.21
  Q 112.74 59.40 112.48 58.96
  C 108.52 52.28 104.88 48.02 96.56 48.00
  L 96.51 43.00
  Q 97.75 43.91 98.70 43.20
  Q 104.19 39.17 107.60 32.20
  C 111.84 23.52 105.45 14.41 98.45 9.25
  A 1.55 1.54 44.8 0 0 96.62 9.25
  Q 92.85 12.03 89.88 16.09
  Q 89.98 15.43 89.76 15.09
  Q 89.35 14.48 89.07 15.15
  L 88.60 16.23
  Q 88.39 16.72 88.34 16.19
  Q 88.25 15.23 87.32 14.76
  A 0.33 0.32 -46.7 0 1 87.31 14.20
  Q 88.24 13.65 89.12 14.02
  Q 89.66 14.26 89.84 13.69
  Q 89.88 13.56 89.85 13.43
  Q 89.77 13.12 89.45 13.16
  Q 88.45 13.27 87.55 12.93
  Q 86.84 12.66 87.38 12.11
  L 87.66 11.84
  A 0.49 0.49 0.0 0 0 87.51 11.04
  Q 87.02 10.82 86.50 10.85
  Q 86.19 10.87 86.13 10.57
  Q 86.09 10.44 86.16 10.31
  Q 86.22 10.20 86.35 10.16
  L 87.46 9.85
  Q 88.23 9.63 87.63 9.09
  Q 87.30 8.81 86.91 8.89
  Q 86.12 9.05 86.12 8.25
  L 86.12 6.51
  Q 86.12 5.68 86.93 5.85
  Q 87.30 5.93 87.63 5.77
  Q 88.13 5.54 87.64 5.29
  Q 86.85 4.90 85.87 4.89
  Q 84.77 4.87 85.47 4.02
  Q 85.57 3.89 85.73 3.83
  Q 86.51 3.54 85.80 3.07
  Q 85.43 2.83 85.37 2.41
  A 0.41 0.40 -2.9 0 1 85.79 1.95
  Q 86.08 1.96 86.19 1.71
  Q 86.37 1.33 85.99 1.16
  Q 85.22 0.81 85.37 0.00
  Z
  M 146.06 52.17
  Q 158.26 60.46 171.13 53.21
  C 175.99 50.47 178.79 44.79 180.35 39.60
  Q 184.01 27.41 185.14 11.54
  A 2.34 2.33 -89.5 0 0 182.69 9.04
  Q 170.01 9.70 156.98 12.99
  Q 149.84 14.80 145.84 17.81
  C 136.42 24.90 135.15 38.58 142.14 48.00
  Q 142.54 48.53 142.07 49.00
  L 139.43 51.65
  Q 138.23 52.85 138.63 54.51
  Q 138.76 55.03 139.17 55.30
  Q 140.95 56.44 142.45 54.94
  L 145.14 52.25
  Q 145.57 51.83 146.06 52.17
  Z
  M 151.44 98.49
  C 157.25 105.80 166.02 111.03 174.97 106.38
  Q 180.94 103.28 184.91 97.71
  A 1.59 1.59 0.0 0 0 184.89 95.84
  C 179.03 87.95 169.75 82.45 160.26 87.72
  Q 155.20 90.54 151.25 95.61
  C 150.49 96.59 150.73 97.60 151.44 98.49
  Z"
/>
<path fill="#f2f2f0" d="
  M 32.03 11.74
  Q 42.68 13.42 48.96 17.76
  Q 53.73 21.06 56.08 28.67
  Q 59.13 38.56 52.49 48.05
  Q 52.17 48.51 52.56 48.91
  L 55.28 51.63
  Q 56.49 52.84 56.08 54.50
  Q 55.95 55.01 55.54 55.28
  Q 53.78 56.46 52.29 54.96
  L 49.58 52.24
  Q 49.17 51.82 48.64 52.10
  L 41.71 55.79
  Q 25.60 58.70 18.08 47.97
  Q 14.08 42.26 11.86 30.15
  Q 10.05 20.25 9.58 11.27
  C 9.48 9.26 11.61 8.97 13.11 9.07
  Q 22.67 9.70 32.03 11.74
  Z
  M 42.74 19.52
  Q 31.21 15.12 18.36 14.23
  Q 17.76 14.19 18.18 14.61
  L 38.12 34.52
  Q 38.58 34.98 38.58 34.33
  L 38.56 28.67
  Q 38.55 26.92 39.93 25.84
  Q 40.69 25.24 41.47 25.80
  Q 43.00 26.91 43.00 28.80
  L 43.00 38.72
  Q 43.00 39.33 43.43 39.76
  L 48.57 44.99
  Q 49.01 45.44 49.36 44.92
  C 55.31 36.12 53.01 23.44 42.74 19.52
  Z
  M 14.57 17.76
  Q 15.66 28.63 18.28 37.80
  C 20.38 45.13 23.65 49.73 31.71 51.69
  Q 38.91 53.43 45.39 48.73
  Q 45.82 48.42 45.45 48.04
  L 40.32 42.94
  A 1.50 1.50 0.0 0 0 39.26 42.50
  L 28.77 42.50
  Q 26.85 42.50 26.10 40.73
  Q 25.68 39.71 26.90 38.55
  A 2.02 2.01 -66.4 0 1 28.27 38.01
  L 34.68 38.00
  Q 35.49 38.00 34.92 37.42
  L 14.98 17.56
  Q 14.50 17.08 14.57 17.76
  Z"
/>
<path fill="#f2f2f0" d="
  M 96.51 43.00
  C 87.63 36.25 82.76 26.27 89.88 16.09
  Q 92.85 12.03 96.62 9.25
  A 1.55 1.54 44.8 0 1 98.45 9.25
  C 105.45 14.41 111.84 23.52 107.60 32.20
  Q 104.19 39.17 98.70 43.20
  Q 97.75 43.91 96.51 43.00
  Z
  M 91.72 21.62
  C 88.89 27.84 92.64 33.89 97.38 37.96
  A 0.61 0.61 0.0 0 0 98.19 37.95
  C 106.59 30.34 106.68 21.86 97.95 14.39
  A 0.56 0.56 0.0 0 0 97.21 14.40
  Q 93.49 17.73 91.72 21.62
  Z"
/>
<path fill="#f2f2f0" d="
  M 145.14 52.25
  L 142.45 54.94
  Q 140.95 56.44 139.17 55.30
  Q 138.76 55.03 138.63 54.51
  Q 138.23 52.85 139.43 51.65
  L 142.07 49.00
  Q 142.54 48.53 142.14 48.00
  C 135.15 38.58 136.42 24.90 145.84 17.81
  Q 149.84 14.80 156.98 12.99
  Q 170.01 9.70 182.69 9.04
  A 2.34 2.33 -89.5 0 1 185.14 11.54
  Q 184.01 27.41 180.35 39.60
  C 178.79 44.79 175.99 50.47 171.13 53.21
  Q 158.26 60.46 146.06 52.17
  Q 145.57 51.83 145.14 52.25
  Z
  M 154.57 25.71
  Q 156.12 26.51 156.12 28.26
  L 156.12 34.24
  Q 156.13 35.03 156.68 34.47
  L 176.48 14.66
  Q 177.08 14.05 176.23 14.14
  Q 168.16 14.96 159.49 17.01
  C 151.15 18.99 144.58 21.85 142.52 30.65
  Q 140.73 38.28 145.42 45.14
  A 0.35 0.35 0.0 0 0 145.95 45.19
  L 151.17 39.90
  A 2.01 1.98 67.8 0 0 151.75 38.49
  L 151.74 28.10
  Q 151.74 26.06 153.72 25.59
  Q 154.14 25.48 154.57 25.71
  Z
  M 159.97 37.24
  Q 159.21 38.00 160.29 37.99
  Q 163.57 37.95 166.47 38.06
  Q 168.03 38.11 168.64 39.73
  Q 168.76 40.02 168.69 40.33
  Q 168.20 42.50 165.97 42.50
  L 155.39 42.50
  Q 154.84 42.50 154.46 42.88
  L 149.30 48.02
  Q 148.86 48.47 149.37 48.83
  Q 156.14 53.58 163.55 51.56
  Q 171.17 49.49 173.95 43.88
  C 177.58 36.56 179.20 26.54 180.17 17.90
  Q 180.27 17.05 179.66 17.65
  L 159.97 37.24
  Z"
/>
<path fill="#5c6073" d="
  M 154.57 25.71
  Q 154.14 25.48 153.72 25.59
  Q 151.74 26.06 151.74 28.10
  L 151.75 38.49
  A 2.01 1.98 67.8 0 1 151.17 39.90
  L 145.95 45.19
  A 0.35 0.35 0.0 0 1 145.42 45.14
  Q 140.73 38.28 142.52 30.65
  C 144.58 21.85 151.15 18.99 159.49 17.01
  Q 168.16 14.96 176.23 14.14
  Q 177.08 14.05 176.48 14.66
  L 156.68 34.47
  Q 156.13 35.03 156.12 34.24
  L 156.12 28.26
  Q 156.12 26.51 154.57 25.71
  Z"
/>
<path fill="#565a6e" d="
  M 42.74 19.52
  C 53.01 23.44 55.31 36.12 49.36 44.92
  Q 49.01 45.44 48.57 44.99
  L 43.43 39.76
  Q 43.00 39.33 43.00 38.72
  L 43.00 28.80
  Q 43.00 26.91 41.47 25.80
  Q 40.69 25.24 39.93 25.84
  Q 38.55 26.92 38.56 28.67
  L 38.58 34.33
  Q 38.58 34.98 38.12 34.52
  L 18.18 14.61
  Q 17.76 14.19 18.36 14.23
  Q 31.21 15.12 42.74 19.52
  Z"
/>
<path fill="#565a6e" d="
  M 91.72 21.62
  Q 93.49 17.73 97.21 14.40
  A 0.56 0.56 0.0 0 1 97.95 14.39
  C 106.68 21.86 106.59 30.34 98.19 37.95
  A 0.61 0.61 0.0 0 1 97.38 37.96
  C 92.64 33.89 88.89 27.84 91.72 21.62
  Z"
/>
<path fill="#565a6e" d="
  M 14.57 17.76
  Q 14.50 17.08 14.98 17.56
  L 34.92 37.42
  Q 35.49 38.00 34.68 38.00
  L 28.27 38.01
  A 2.02 2.01 -66.4 0 0 26.90 38.55
  Q 25.68 39.71 26.10 40.73
  Q 26.85 42.50 28.77 42.50
  L 39.26 42.50
  A 1.50 1.50 0.0 0 1 40.32 42.94
  L 45.45 48.04
  Q 45.82 48.42 45.39 48.73
  Q 38.91 53.43 31.71 51.69
  C 23.65 49.73 20.38 45.13 18.28 37.80
  Q 15.66 28.63 14.57 17.76
  Z"
/>
<path fill="#5c6073" d="
  M 159.97 37.24
  L 179.66 17.65
  Q 180.27 17.05 180.17 17.90
  C 179.20 26.54 177.58 36.56 173.95 43.88
  Q 171.17 49.49 163.55 51.56
  Q 156.14 53.58 149.37 48.83
  Q 148.86 48.47 149.30 48.02
  L 154.46 42.88
  Q 154.84 42.50 155.39 42.50
  L 165.97 42.50
  Q 168.20 42.50 168.69 40.33
  Q 168.76 40.02 168.64 39.73
  Q 168.03 38.11 166.47 38.06
  Q 163.57 37.95 160.29 37.99
  Q 159.21 38.00 159.97 37.24
  Z"
/>
<path fill="#f2f2f0" d="
  M 96.56 48.00
  C 104.88 48.02 108.52 52.28 112.48 58.96
  Q 112.74 59.40 113.21 59.21
  Q 120.57 56.22 127.39 59.11
  C 136.01 62.76 137.99 72.48 134.90 80.71
  Q 134.68 81.29 135.25 81.54
  C 146.72 86.63 150.33 100.07 140.25 108.45
  L 135.36 111.50
  Q 134.80 111.85 135.03 112.46
  C 138.91 122.66 134.60 133.71 122.98 135.20
  Q 118.17 135.82 113.57 133.96
  Q 113.02 133.73 112.76 134.27
  C 110.06 139.83 106.40 143.66 100.24 145.03
  Q 91.40 147.01 85.31 138.96
  Q 83.62 136.97 82.73 134.59
  Q 82.52 134.03 81.96 134.23
  C 67.01 139.64 54.44 128.35 60.15 112.87
  Q 60.41 112.18 59.74 111.85
  C 55.78 109.89 52.89 107.80 50.70 103.67
  C 46.55 95.84 49.63 88.72 56.28 83.68
  L 59.81 81.69
  Q 60.24 81.45 60.07 80.98
  C 55.52 68.99 62.11 57.14 75.58 57.83
  Q 78.44 57.98 81.37 59.31
  Q 81.93 59.56 82.20 59.01
  C 85.37 52.74 89.31 48.79 96.56 48.00
  Z
  M 86.42 61.78
  C 92.50 65.83 94.90 71.48 97.13 78.28
  Q 97.53 79.51 97.83 78.25
  Q 100.46 67.15 108.18 61.88
  Q 108.78 61.47 108.51 60.80
  Q 106.34 55.51 101.50 53.28
  C 95.04 50.30 88.57 54.79 86.17 60.96
  Q 85.97 61.47 86.42 61.78
  Z
  M 116.16 81.04
  A 1.49 1.44 -18.3 0 1 115.75 81.82
  L 109.34 88.25
  Q 108.91 88.69 109.17 89.24
  L 110.68 92.40
  A 0.71 0.71 0.0 0 0 111.51 92.78
  Q 116.64 91.37 120.92 89.57
  C 128.49 86.39 134.48 76.26 130.83 68.41
  Q 127.06 60.26 117.32 62.63
  C 107.16 65.11 103.27 73.00 101.20 82.52
  Q 101.05 83.20 101.68 83.49
  L 105.17 85.13
  Q 105.79 85.41 106.27 84.93
  L 112.07 79.10
  Q 113.57 77.59 115.52 78.43
  Q 116.57 78.89 116.16 81.04
  Z
  M 79.74 78.54
  Q 81.59 77.37 83.15 78.91
  L 89.02 84.72
  Q 89.43 85.12 89.95 84.88
  L 93.29 83.34
  Q 93.76 83.12 93.66 82.62
  C 91.62 72.97 87.75 65.04 77.21 62.71
  C 68.53 60.79 61.39 66.84 63.19 75.85
  C 65.35 86.59 73.52 90.98 83.68 93.08
  Q 84.23 93.19 84.38 92.65
  Q 84.91 90.73 86.04 89.06
  Q 86.39 88.53 85.95 88.08
  L 79.48 81.57
  A 1.40 1.36 18.6 0 1 79.09 80.81
  Q 78.85 79.10 79.74 78.54
  Z
  M 118.36 97.73
  Q 127.55 100.49 132.34 107.41
  Q 132.69 107.92 133.25 107.68
  C 144.78 102.96 144.26 90.07 133.25 85.31
  Q 132.60 85.02 132.22 85.62
  Q 127.20 93.51 116.01 96.13
  Q 114.82 96.41 115.95 96.87
  Q 117.15 97.36 118.36 97.73
  Z
  M 78.44 97.42
  Q 81.00 96.71 78.42 96.06
  C 72.93 94.68 65.70 91.10 62.73 85.98
  Q 62.49 85.56 62.04 85.72
  C 50.16 90.04 50.70 103.39 61.93 108.02
  Q 62.41 108.22 62.71 107.79
  Q 67.90 100.29 78.44 97.42
  Z
  M 106.95 96.73
  A 9.45 9.45 0.0 0 0 97.50 87.28
  A 9.45 9.45 0.0 0 0 88.05 96.73
  A 9.45 9.45 0.0 0 0 97.50 106.18
  A 9.45 9.45 0.0 0 0 106.95 96.73
  Z
  M 80.10 114.49
  L 79.84 114.28
  Q 78.11 112.88 79.68 111.30
  L 85.77 105.19
  Q 86.27 104.69 85.89 104.09
  Q 84.98 102.65 84.46 100.90
  Q 84.26 100.21 83.55 100.35
  C 74.36 102.29 66.39 106.34 63.68 116.00
  C 60.84 126.12 69.11 133.70 78.94 130.38
  C 88.49 127.15 91.80 119.78 93.83 110.71
  Q 93.97 110.12 93.43 109.86
  L 89.81 108.08
  Q 89.29 107.82 88.88 108.23
  L 82.72 114.36
  Q 81.47 115.60 80.10 114.49
  Z
  M 114.90 114.23
  L 114.65 114.48
  Q 113.40 115.72 112.15 114.48
  L 106.20 108.62
  A 1.06 1.05 -34.9 0 0 105.01 108.41
  L 101.88 109.88
  Q 101.26 110.17 101.41 110.84
  C 103.79 121.23 108.35 129.64 119.30 130.99
  C 125.18 131.72 130.49 128.47 131.76 122.54
  C 132.96 116.93 130.17 110.19 125.87 106.65
  Q 120.52 102.24 111.57 100.38
  Q 110.87 100.24 110.66 100.91
  Q 110.06 102.82 109.03 104.23
  Q 108.66 104.74 109.10 105.19
  L 114.92 111.15
  Q 116.44 112.70 114.90 114.23
  Z
  M 97.28 115.10
  C 95.33 121.71 92.70 127.66 86.72 131.43
  Q 86.25 131.72 86.48 132.23
  C 91.65 143.77 103.39 143.66 108.81 132.48
  A 0.85 0.84 -59.9 0 0 108.53 131.41
  C 102.51 127.23 99.99 121.85 97.93 115.09
  Q 97.60 114.02 97.28 115.10
  Z"
/>
<path fill="#565a6e" d="
  M 97.13 78.28
  C 94.90 71.48 92.50 65.83 86.42 61.78
  Q 85.97 61.47 86.17 60.96
  C 88.57 54.79 95.04 50.30 101.50 53.28
  Q 106.34 55.51 108.51 60.80
  Q 108.78 61.47 108.18 61.88
  Q 100.46 67.15 97.83 78.25
  Q 97.53 79.51 97.13 78.28
  Z"
/>
<path fill="#565a6e" d="
  M 116.16 81.04
  Q 116.57 78.89 115.52 78.43
  Q 113.57 77.59 112.07 79.10
  L 106.27 84.93
  Q 105.79 85.41 105.17 85.13
  L 101.68 83.49
  Q 101.05 83.20 101.20 82.52
  C 103.27 73.00 107.16 65.11 117.32 62.63
  Q 127.06 60.26 130.83 68.41
  C 134.48 76.26 128.49 86.39 120.92 89.57
  Q 116.64 91.37 111.51 92.78
  A 0.71 0.71 0.0 0 1 110.68 92.40
  L 109.17 89.24
  Q 108.91 88.69 109.34 88.25
  L 115.75 81.82
  A 1.49 1.44 -18.3 0 0 116.16 81.04
  Z"
/>
<path fill="#565a6e" d="
  M 79.74 78.54
  Q 78.85 79.10 79.09 80.81
  A 1.40 1.36 18.6 0 0 79.48 81.57
  L 85.95 88.08
  Q 86.39 88.53 86.04 89.06
  Q 84.91 90.73 84.38 92.65
  Q 84.23 93.19 83.68 93.08
  C 73.52 90.98 65.35 86.59 63.19 75.85
  C 61.39 66.84 68.53 60.79 77.21 62.71
  C 87.75 65.04 91.62 72.97 93.66 82.62
  Q 93.76 83.12 93.29 83.34
  L 89.95 84.88
  Q 89.43 85.12 89.02 84.72
  L 83.15 78.91
  Q 81.59 77.37 79.74 78.54
  Z"
/>
<path fill="#f2f2f0" d="
  M 20.09 86.83
  C 29.14 82.22 38.38 87.67 43.85 95.16
  A 2.13 2.12 -45.6 0 1 43.87 97.64
  C 40.70 102.15 34.90 106.88 29.46 107.69
  C 21.60 108.85 15.23 104.05 10.39 98.09
  A 2.35 2.34 43.9 0 1 10.33 95.21
  Q 14.43 89.71 20.09 86.83
  Z
  M 21.25 101.70
  C 28.02 105.71 34.24 102.14 38.88 96.84
  Q 39.19 96.49 38.88 96.13
  C 34.82 91.33 28.55 87.65 22.36 90.72
  Q 18.17 92.80 15.18 96.19
  A 0.47 0.47 0.0 0 0 15.19 96.82
  Q 17.74 99.62 21.25 101.70
  Z"
/>
<path fill="#565a6e" d="
  M 118.36 97.73
  Q 117.15 97.36 115.95 96.87
  Q 114.82 96.41 116.01 96.13
  Q 127.20 93.51 132.22 85.62
  Q 132.60 85.02 133.25 85.31
  C 144.26 90.07 144.78 102.96 133.25 107.68
  Q 132.69 107.92 132.34 107.41
  Q 127.55 100.49 118.36 97.73
  Z"
/>
<path fill="#f2f2f0" d="
  M 174.97 106.38
  C 166.02 111.03 157.25 105.80 151.44 98.49
  C 150.73 97.60 150.49 96.59 151.25 95.61
  Q 155.20 90.54 160.26 87.72
  C 169.75 82.45 179.03 87.95 184.89 95.84
  A 1.59 1.59 0.0 0 1 184.91 97.71
  Q 180.94 103.28 174.97 106.38
  Z
  M 170.46 90.11
  C 165.11 88.67 159.37 92.60 156.12 96.53
  A 0.66 0.66 0.0 0 0 156.14 97.39
  C 158.79 100.28 163.53 104.03 167.77 103.76
  C 172.48 103.46 176.78 100.68 179.73 97.11
  Q 180.06 96.72 179.73 96.33
  Q 175.62 91.50 170.46 90.11
  Z"
/>
<path fill="#565a6e" d="
  M 78.44 97.42
  Q 67.90 100.29 62.71 107.79
  Q 62.41 108.22 61.93 108.02
  C 50.70 103.39 50.16 90.04 62.04 85.72
  Q 62.49 85.56 62.73 85.98
  C 65.70 91.10 72.93 94.68 78.42 96.06
  Q 81.00 96.71 78.44 97.42
  Z"
/>
<circle fill="#565a6e" cx="97.50" cy="96.73" r="9.45"/>
<path fill="#52556a" d="
  M 21.25 101.70
  Q 17.74 99.62 15.19 96.82
  A 0.47 0.47 0.0 0 1 15.18 96.19
  Q 18.17 92.80 22.36 90.72
  C 28.55 87.65 34.82 91.33 38.88 96.13
  Q 39.19 96.49 38.88 96.84
  C 34.24 102.14 28.02 105.71 21.25 101.70
  Z"
/>
<path fill="#5c6073" d="
  M 156.12 96.53
  C 159.37 92.60 165.11 88.67 170.46 90.11
  Q 175.62 91.50 179.73 96.33
  Q 180.06 96.72 179.73 97.11
  C 176.78 100.68 172.48 103.46 167.77 103.76
  C 163.53 104.03 158.79 100.28 156.14 97.39
  A 0.66 0.66 0.0 0 1 156.12 96.53
  Z"
/>
<path fill="#565a6e" d="
  M 82.72 114.36
  L 88.88 108.23
  Q 89.29 107.82 89.81 108.08
  L 93.43 109.86
  Q 93.97 110.12 93.83 110.71
  C 91.80 119.78 88.49 127.15 78.94 130.38
  C 69.11 133.70 60.84 126.12 63.68 116.00
  C 66.39 106.34 74.36 102.29 83.55 100.35
  Q 84.26 100.21 84.46 100.90
  Q 84.98 102.65 85.89 104.09
  Q 86.27 104.69 85.77 105.19
  L 79.68 111.30
  Q 78.11 112.88 79.84 114.28
  L 80.10 114.49
  Q 81.47 115.60 82.72 114.36
  Z"
/>
<path fill="#565a6e" d="
  M 114.90 114.23
  Q 116.44 112.70 114.92 111.15
  L 109.10 105.19
  Q 108.66 104.74 109.03 104.23
  Q 110.06 102.82 110.66 100.91
  Q 110.87 100.24 111.57 100.38
  Q 120.52 102.24 125.87 106.65
  C 130.17 110.19 132.96 116.93 131.76 122.54
  C 130.49 128.47 125.18 131.72 119.30 130.99
  C 108.35 129.64 103.79 121.23 101.41 110.84
  Q 101.26 110.17 101.88 109.88
  L 105.01 108.41
  A 1.06 1.05 -34.9 0 1 106.20 108.62
  L 112.15 114.48
  Q 113.40 115.72 114.65 114.48
  L 114.90 114.23
  Z"
/>
<path fill="#565a6e" d="
  M 140.25 108.45
  Q 140.25 108.78 140.32 108.95
  Q 140.40 109.16 140.60 109.03
  Q 140.76 108.92 140.88 108.92
  Q 141.49 108.91 141.69 109.28
  Q 142.01 109.87 141.34 109.87
  Q 140.85 109.88 140.40 110.15
  Q 139.51 110.68 140.51 110.96
  L 141.41 111.22
  Q 141.63 111.28 141.71 111.50
  Q 141.81 111.80 141.55 111.87
  A 0.91 0.90 -79.5 0 0 141.00 112.25
  Q 140.83 112.49 141.00 112.72
  Q 141.25 113.06 141.66 113.07
  Q 143.53 113.10 145.08 113.30
  Q 146.25 113.45 145.10 113.71
  Q 144.47 113.84 143.78 113.85
  Q 143.19 113.85 142.97 114.40
  Q 142.91 114.56 143.01 114.74
  Q 143.16 115.00 143.46 114.99
  Q 144.33 114.97 145.30 115.25
  Q 146.15 115.49 145.32 115.80
  Q 145.01 115.92 144.65 116.03
  Q 144.34 116.12 144.16 116.39
  Q 144.00 116.64 144.09 116.80
  Q 144.26 117.11 144.62 117.09
  Q 146.04 116.99 147.25 117.22
  Q 148.44 117.45 147.27 117.74
  Q 146.69 117.89 146.35 118.26
  Q 145.63 119.07 146.72 119.07
  L 147.23 119.07
  Q 147.96 119.07 147.90 119.80
  Q 147.79 121.16 149.21 121.14
  Q 149.80 121.13 149.73 121.72
  Q 149.70 121.92 149.56 121.94
  Q 149.21 121.97 149.06 122.28
  Q 148.88 122.65 149.12 122.87
  Q 149.26 123.00 149.44 123.01
  Q 150.27 123.08 151.20 123.06
  Q 151.95 123.04 151.69 123.75
  Q 151.61 123.95 151.40 123.99
  Q 150.92 124.10 151.01 124.59
  Q 151.06 124.87 151.29 124.98
  Q 151.49 125.08 151.71 125.06
  Q 152.50 125.00 153.31 125.14
  Q 153.93 125.25 153.64 125.81
  Q 153.55 125.99 153.33 125.98
  A 0.31 0.31 0.0 0 0 153.00 126.25
  Q 152.92 126.91 153.46 127.04
  A 0.69 0.68 14.5 0 1 153.96 127.88
  Q 153.86 128.23 153.98 128.56
  Q 154.17 129.11 154.75 129.09
  Q 156.01 129.03 157.24 129.23
  Q 158.22 129.39 157.30 129.78
  Q 156.92 129.94 156.49 130.11
  Q 155.63 130.43 156.37 130.96
  Q 156.67 131.17 157.00 131.08
  Q 157.85 130.84 157.88 131.72
  Q 157.95 133.58 160.13 133.23
  Q 160.72 133.14 160.68 133.73
  L 160.62 134.52
  Q 160.58 135.10 161.17 135.06
  Q 161.33 135.04 161.50 135.00
  A 0.15 0.15 0.0 0 1 161.69 135.17
  Q 161.45 137.47 162.18 137.22
  Q 153.27 136.17 146.16 141.62
  Q 145.66 142.00 145.21 141.56
  L 141.80 138.19
  A 1.62 1.61 57.2 0 0 140.11 137.82
  Q 139.41 138.08 139.01 138.60
  Q 137.77 140.19 139.19 141.61
  L 142.16 144.60
  A 0.72 0.71 41.1 0 1 142.23 145.53
  C 135.85 154.09 136.16 165.54 143.19 173.54
  C 146.64 177.45 152.10 179.50 157.00 180.76
  Q 165.99 183.08 174.76 183.82
  Q 178.27 184.12 182.42 184.63
  C 183.99 184.82 185.15 183.97 185.07 182.26
  Q 184.32 167.37 180.18 153.24
  Q 180.13 152.10 181.98 153.21
  Q 182.49 153.51 182.11 153.97
  Q 181.84 154.29 182.05 154.67
  Q 182.38 155.26 183.03 155.07
  Q 183.43 154.95 183.78 155.37
  A 0.65 0.63 33.7 0 1 183.91 155.97
  Q 183.76 156.53 184.18 156.85
  Q 184.42 157.02 184.71 157.04
  L 189.28 157.31
  Q 190.12 157.36 189.32 157.64
  Q 188.62 157.89 187.89 157.71
  Q 187.46 157.61 187.19 157.96
  Q 186.96 158.25 187.02 158.58
  Q 187.13 159.15 187.71 159.07
  Q 188.51 158.95 189.32 159.04
  Q 190.31 159.16 189.56 159.82
  L 189.26 160.08
  Q 188.58 160.68 189.46 160.90
  Q 191.25 161.37 193.00 161.02
  L 193.00 189.00
  L 102.62 189.00
  L 105.67 184.94
  Q 105.98 184.52 106.42 184.25
  Q 107.05 183.86 107.29 183.15
  Q 107.46 182.65 107.98 182.64
  Q 108.56 182.62 108.92 182.13
  Q 109.11 181.87 109.19 181.56
  Q 109.35 180.85 109.96 180.58
  Q 113.14 179.16 112.56 175.84
  Q 112.47 175.31 111.94 175.25
  Q 110.94 175.14 110.79 174.15
  A 1.28 1.28 0.0 0 0 109.80 173.09
  Q 108.90 172.89 109.39 172.15
  Q 109.78 171.57 109.17 171.23
  L 108.32 170.76
  C 109.91 162.31 104.88 154.95 98.39 150.22
  Q 97.98 149.92 97.47 149.98
  Q 95.41 150.19 93.87 152.05
  Q 93.27 150.82 91.46 150.80
  Q 90.65 150.79 91.15 150.15
  Q 91.51 149.70 92.11 149.72
  Q 92.33 149.73 92.54 149.64
  Q 92.99 149.46 92.51 149.38
  L 90.50 149.03
  A 0.70 0.70 0.0 0 1 89.93 148.25
  Q 90.11 146.80 88.55 146.80
  Q 87.66 146.80 88.26 146.14
  Q 88.63 145.73 89.25 145.91
  Q 89.63 146.01 89.81 145.65
  Q 89.90 145.46 89.78 145.28
  Q 89.67 145.10 89.46 145.10
  Q 88.48 145.10 87.38 144.76
  Q 86.64 144.53 87.31 144.14
  Q 87.68 143.92 87.88 143.52
  Q 87.95 143.38 87.82 143.30
  L 87.58 143.17
  Q 87.32 143.02 87.17 143.28
  Q 87.00 143.57 86.71 143.72
  Q 86.18 143.98 86.10 143.40
  Q 86.02 142.89 85.51 142.77
  Q 84.94 142.64 85.35 142.22
  Q 85.67 141.89 85.79 141.38
  Q 85.93 140.73 85.27 140.83
  Q 85.15 140.85 85.02 140.86
  Q 84.05 140.94 84.07 139.97
  Q 84.07 139.81 84.05 139.67
  Q 83.98 138.90 84.69 139.19
  Q 85.33 139.45 85.31 138.96
  Q 91.40 147.01 100.24 145.03
  C 106.40 143.66 110.06 139.83 112.76 134.27
  Q 113.02 133.73 113.57 133.96
  Q 118.17 135.82 122.98 135.20
  C 134.60 133.71 138.91 122.66 135.03 112.46
  Q 134.80 111.85 135.36 111.50
  L 140.25 108.45
  Z"
/>
<path fill="#565a6e" d="
  M 86.72 131.43
  C 92.70 127.66 95.33 121.71 97.28 115.10
  Q 97.60 114.02 97.93 115.09
  C 99.99 121.85 102.51 127.23 108.53 131.41
  A 0.85 0.84 -59.9 0 1 108.81 132.48
  C 103.39 143.66 91.65 143.77 86.48 132.23
  Q 86.25 131.72 86.72 131.43
  Z"
/>
<path fill="#f2f2f0" d="
  M 52.56 145.47
  Q 62.32 160.28 51.00 174.11
  C 47.07 178.91 36.39 181.34 30.42 182.38
  Q 20.55 184.10 11.64 184.63
  A 1.82 1.80 -12.8 0 1 9.87 183.53
  C 9.23 181.99 9.59 180.52 9.71 178.95
  Q 10.71 166.07 14.29 153.79
  C 16.94 144.70 22.70 138.47 32.60 137.26
  Q 41.53 136.17 48.53 141.64
  Q 49.05 142.04 49.51 141.58
  L 52.94 138.17
  A 1.56 1.55 -58.0 0 1 54.52 137.80
  Q 55.15 138.01 55.58 138.48
  Q 57.03 140.10 55.50 141.65
  L 52.65 144.51
  Q 52.21 144.95 52.56 145.47
  Z
  M 26.45 152.13
  A 1.85 1.84 -74.2 0 1 28.02 151.25
  L 39.34 151.25
  Q 39.87 151.25 40.25 150.87
  L 45.59 145.58
  A 0.44 0.44 0.0 0 0 45.52 144.90
  Q 35.68 138.34 25.74 144.37
  Q 21.60 146.89 19.90 151.24
  Q 16.04 161.18 14.55 175.60
  Q 14.46 176.47 15.08 175.85
  L 34.81 156.13
  Q 35.43 155.50 34.55 155.50
  L 28.09 155.50
  Q 26.41 155.50 26.07 153.85
  Q 25.89 153.03 26.45 152.13
  Z
  M 41.09 168.17
  Q 40.75 168.31 40.40 168.19
  Q 38.74 167.63 38.64 165.97
  Q 38.46 163.08 38.60 159.55
  Q 38.63 158.73 38.05 159.31
  L 18.26 179.06
  Q 17.51 179.81 18.56 179.66
  Q 26.20 178.59 34.53 176.78
  C 42.60 175.02 49.22 172.49 51.79 164.14
  Q 54.28 156.08 49.39 148.75
  Q 49.08 148.28 48.67 148.67
  L 43.44 153.72
  A 1.46 1.45 -22.4 0 0 43.00 154.76
  L 43.00 165.50
  Q 43.00 167.42 41.09 168.17
  Z"
/>
<path fill="#f2f2f0" d="
  M 162.18 137.22
  Q 176.05 139.20 180.18 153.24
  Q 184.32 167.37 185.07 182.26
  C 185.15 183.97 183.99 184.82 182.42 184.63
  Q 178.27 184.12 174.76 183.82
  Q 165.99 183.08 157.00 180.76
  C 152.10 179.50 146.64 177.45 143.19 173.54
  C 136.16 165.54 135.85 154.09 142.23 145.53
  A 0.72 0.71 41.1 0 0 142.16 144.60
  L 139.19 141.61
  Q 137.77 140.19 139.01 138.60
  Q 139.41 138.08 140.11 137.82
  A 1.62 1.61 57.2 0 1 141.80 138.19
  L 145.21 141.56
  Q 145.66 142.00 146.16 141.62
  Q 153.27 136.17 162.18 137.22
  Z
  M 166.64 155.50
  L 159.97 155.51
  Q 159.22 155.51 159.75 156.04
  L 179.66 175.84
  Q 180.14 176.33 180.08 175.65
  Q 178.88 163.29 175.37 152.71
  Q 174.07 148.78 171.96 146.79
  Q 162.45 137.81 150.09 144.15
  Q 148.53 144.95 149.77 146.20
  L 154.49 150.89
  Q 154.85 151.25 155.35 151.25
  L 166.69 151.25
  A 1.72 1.70 -19.5 0 1 168.01 151.87
  Q 168.85 152.88 168.58 153.97
  Q 168.21 155.50 166.64 155.50
  Z
  M 153.38 168.12
  Q 151.73 167.28 151.74 165.60
  Q 151.75 160.26 151.75 154.86
  A 1.33 1.33 0.0 0 0 151.36 153.92
  L 146.07 148.64
  A 0.41 0.41 0.0 0 0 145.45 148.68
  C 138.40 158.38 142.56 171.39 153.94 175.02
  Q 163.76 178.14 176.18 179.62
  Q 177.13 179.73 176.45 179.06
  L 156.82 159.45
  Q 156.14 158.76 156.14 159.73
  L 156.14 165.30
  Q 156.14 167.38 154.22 168.15
  Q 153.78 168.33 153.38 168.12
  Z"
/>
<path fill="#52556a" d="
  M 26.45 152.13
  Q 25.89 153.03 26.07 153.85
  Q 26.41 155.50 28.09 155.50
  L 34.55 155.50
  Q 35.43 155.50 34.81 156.13
  L 15.08 175.85
  Q 14.46 176.47 14.55 175.60
  Q 16.04 161.18 19.90 151.24
  Q 21.60 146.89 25.74 144.37
  Q 35.68 138.34 45.52 144.90
  A 0.44 0.44 0.0 0 1 45.59 145.58
  L 40.25 150.87
  Q 39.87 151.25 39.34 151.25
  L 28.02 151.25
  A 1.85 1.84 -74.2 0 0 26.45 152.13
  Z"
/>
<path fill="#565a6e" d="
  M 166.64 155.50
  Q 168.21 155.50 168.58 153.97
  Q 168.85 152.88 168.01 151.87
  A 1.72 1.70 -19.5 0 0 166.69 151.25
  L 155.35 151.25
  Q 154.85 151.25 154.49 150.89
  L 149.77 146.20
  Q 148.53 144.95 150.09 144.15
  Q 162.45 137.81 171.96 146.79
  Q 174.07 148.78 175.37 152.71
  Q 178.88 163.29 180.08 175.65
  Q 180.14 176.33 179.66 175.84
  L 159.75 156.04
  Q 159.22 155.51 159.97 155.51
  L 166.64 155.50
  Z"
/>
<path fill="#52556a" d="
  M 41.09 168.17
  Q 43.00 167.42 43.00 165.50
  L 43.00 154.76
  A 1.46 1.45 -22.4 0 1 43.44 153.72
  L 48.67 148.67
  Q 49.08 148.28 49.39 148.75
  Q 54.28 156.08 51.79 164.14
  C 49.22 172.49 42.60 175.02 34.53 176.78
  Q 26.20 178.59 18.56 179.66
  Q 17.51 179.81 18.26 179.06
  L 38.05 159.31
  Q 38.63 158.73 38.60 159.55
  Q 38.46 163.08 38.64 165.97
  Q 38.74 167.63 40.40 168.19
  Q 40.75 168.31 41.09 168.17
  Z"
/>
<path fill="#565a6e" d="
  M 153.38 168.12
  Q 153.78 168.33 154.22 168.15
  Q 156.14 167.38 156.14 165.30
  L 156.14 159.73
  Q 156.14 158.76 156.82 159.45
  L 176.45 179.06
  Q 177.13 179.73 176.18 179.62
  Q 163.76 178.14 153.94 175.02
  C 142.56 171.39 138.40 158.38 145.45 148.68
  A 0.41 0.41 0.0 0 1 146.07 148.64
  L 151.36 153.92
  A 1.33 1.33 0.0 0 1 151.75 154.86
  Q 151.75 160.26 151.74 165.60
  Q 151.73 167.28 153.38 168.12
  Z"
/>
<path fill="#f2f2f0" d="
  M 108.32 170.76
  Q 105.72 177.83 99.63 183.13
  C 97.15 185.30 95.60 183.74 93.87 182.07
  C 83.89 172.49 83.25 161.46 93.87 152.05
  Q 95.41 150.19 97.47 149.98
  Q 97.98 149.92 98.39 150.22
  C 104.88 154.95 109.91 162.31 108.32 170.76
  Z
  M 91.33 162.82
  C 88.70 168.83 92.35 175.03 97.04 178.89
  A 0.56 0.54 -45.8 0 0 97.76 178.87
  C 101.09 175.85 104.54 171.18 104.29 166.75
  C 104.04 162.38 100.99 158.17 97.62 155.36
  Q 97.30 155.09 96.98 155.36
  Q 93.13 158.70 91.33 162.82
  Z"
/>
<path fill="#565a6e" d="
  M 91.33 162.82
  Q 93.13 158.70 96.98 155.36
  Q 97.30 155.09 97.62 155.36
  C 100.99 158.17 104.04 162.38 104.29 166.75
  C 104.54 171.18 101.09 175.85 97.76 178.87
  A 0.56 0.54 -45.8 0 1 97.04 178.89
  C 92.35 175.03 88.70 168.83 91.33 162.82
  Z"
/>
</svg>
